<svg width="580" height="516" viewBox="0 0 580 516" fill="none" xmlns="http://www.w3.org/2000/svg">
<g clip-path="url(#clip0_278_47)">
<path d="M-0.0600586 5.86V344.46C-0.0600586 347.92 2.73994 350.72 6.19994 350.72H107.82C111.28 350.72 114.08 347.92 114.08 344.46V239.12C114.08 235.66 116.89 232.86 120.35 232.86C134.65 232.89 148.96 232.91 163.25 232.91C165.63 232.91 167.77 231.54 168.83 229.42C177.09 212.94 187.7 197.98 200.4 184.84C214.15 170.63 230.89 159.07 250.53 150.21C256.68 147.43 254.75 138.26 248 138.26C205.45 138.21 162.9 138.16 120.33 138.12C116.88 138.12 114.08 135.31 114.08 131.86V96.3C114.08 92.84 116.88 90.04 120.34 90.04H370.93C374.39 90.04 377.19 87.24 377.19 83.78V5.86C377.19 2.4 374.39 -0.399994 370.93 -0.399994H6.19994C2.73994 -0.399994 -0.0600586 2.4 -0.0600586 5.86Z" fill="white"/>
<path d="M373.54 320.05V381C373.54 385.8 377.43 389.7 382.24 389.7H442.46C451.56 389.7 454.59 401.98 446.48 406.13C442.33 408.26 437.92 410.03 433.26 411.45C419.58 415.66 405.48 417.73 390.96 417.73C357.43 417.73 332.52 409.85 316.25 394.06C299.95 378.24 291.82 357.44 291.82 331.66C291.82 307.8 299.38 287.73 314.56 271.43C329.68 255.16 352.74 247.03 383.69 247.03C402.41 247.03 420.15 250.16 436.9 256.44C451.76 262 464.96 270.04 476.52 280.54C479.25 283.02 483.29 283.42 486.51 281.62L493.02 277.98C527.38 259.87 552.55 246.69 568.56 238.41C573.54 235.83 574.83 229.26 571.16 225.02C550.32 200.92 525.63 182.78 497.14 170.61C465.37 157.08 428.68 150.29 387.12 150.29C382.62 150.29 378.22 150.35 373.88 150.48H373.69C334.04 151.66 300.45 158.17 272.95 169.94C271.71 170.48 270.46 171.02 269.25 171.6C268.01 172.14 266.76 172.72 265.55 173.32C250.37 180.66 237.22 189.75 226.06 200.59C212.69 213.6 201.88 228.41 193.75 245.03H193.72C193.53 245.41 193.34 245.83 193.15 246.24C192.93 246.65 192.7 247.07 192.51 247.48C180.39 273.22 174.33 303.21 174.33 337.47C174.33 373.58 181.51 405.16 195.83 432.24C210.18 459.32 230.03 480.12 255.32 494.64C280.65 509.15 309.58 516.4 342.15 516.4C377.94 516.4 408.25 509 433.06 494.17C442.57 488.49 449.26 482.43 453.09 478.95C464.44 468.56 472.94 457.34 479.32 446.58C483.87 438.89 495.61 442.09 495.53 451.02C495.37 468.28 495.22 485.54 495.06 502.81C495.02 507.64 498.92 511.59 503.75 511.59H571.39C576.19 511.59 580.09 507.7 580.09 502.89V320.05C580.09 315.25 576.2 311.35 571.39 311.35H382.26C377.46 311.35 373.56 315.24 373.56 320.05H373.54Z" fill="white"/>
</g>
<defs>
<clipPath id="clip0_278_47">
<rect width="580" height="516" fill="white"/>
</clipPath>
</defs>
</svg>
